<svg version="1.2" xmlns="http://www.w3.org/2000/svg" viewBox="0 0 89 89" width="89" height="89"><style>.a{fill:#fff}</style><path fill-rule="evenodd" class="a" d="m89 44.5c0 24.6-19.9 44.5-44.5 44.5-24.6 0-44.5-19.9-44.5-44.5 0-24.6 19.9-44.5 44.5-44.5 24.6 0 44.5 19.9 44.5 44.5zm-5.6 0c0-21.5-17.4-38.9-38.9-38.9-21.5 0-38.9 17.4-38.9 38.9 0 21.5 17.4 38.9 38.9 38.9 21.5 0 38.9-17.4 38.9-38.9zm-19.4 0c0 1.5-1.3 2.8-2.8 2.8h-13.9v13.9c0 1.5-1.3 2.8-2.8 2.8-1.5 0-2.8-1.3-2.8-2.8v-13.9h-13.9c-1.5 0-2.8-1.3-2.8-2.8 0-1.5 1.3-2.8 2.8-2.8h13.9v-13.9c0-1.5 1.3-2.8 2.8-2.8 1.5 0 2.8 1.3 2.8 2.8v13.9h13.9c1.5 0 2.8 1.3 2.8 2.8z"/></svg>